<svg id="Layer_1" data-name="Layer 1" xmlns="http://www.w3.org/2000/svg" viewBox="0 0 1024 1024"><defs><style>.cls-1{fill:#226272;}.cls-2{fill:#3c3c3b;}.cls-3{fill:#104d5b;}.cls-4{fill:#fceb00;}.cls-5{fill:#f5f5f5;}.cls-6{fill:#d9525d;}.cls-7{fill:#e8b2c8;}.cls-8{fill:#7a593c;}.cls-9{fill:#98794d;}.cls-10{fill:#b69f7e;}.cls-11{fill:#876844;}.cls-12{fill:#dda6c0;}.cls-13{fill:#1d1d1b;}.cls-14{fill:#fff;}.cls-15{fill:#f4f4f4;}.cls-16{fill:#916f47;}.cls-17{fill:#282828;}.cls-18{fill:#f9c900;}</style></defs><rect class="cls-1" x="20.03" y="222.76" width="983.94" height="568.84"/><rect class="cls-2" x="46.52" y="249.25" width="930.96" height="515.98"/><rect class="cls-3" x="8.85" y="774.87" width="1006.3" height="26.37"/><rect class="cls-4" x="34.37" y="741.9" width="108.45" height="32.97" rx="4.44"/><path class="cls-5" d="M333,528.34c0-.12-.56.08-.68.1C332.53,528.59,333.17,528.3,333,528.34Z"/><polygon class="cls-5" points="334.88 529.82 334.63 529.85 335.3 529.96 334.88 529.82"/><path class="cls-5" d="M335.35,531.55c1-.45-.34-.58-.07-1l.22-.12-.85.09C334.88,530.87,335.56,531.21,335.35,531.55Z"/><path class="cls-5" d="M333.41,533.07c.38-.16.39.11.06-.25l-.09.07A.39.39,0,0,1,333.41,533.07Z"/><path class="cls-5" d="M333.38,532.89c-.08-.17-.3.21,0,0Z"/><path class="cls-5" d="M333.84,533.67l-.42-.14c-.22.11-.21.34-.4.31C333.28,534,333.5,533.91,333.84,533.67Z"/><path class="cls-5" d="M334.64,533.69l-.18-.08C334.37,533.66,334.34,533.7,334.64,533.69Z"/><path class="cls-5" d="M334.07,533.43l.39.18c.15-.08.48-.18-.15-.09C334.62,533.46,334.32,533.48,334.07,533.43Z"/><path class="cls-5" d="M334.19,533.24c.18-.2.27-.41.69-.26C334.61,532.56,333.92,532.82,334.19,533.24Z"/><path class="cls-5" d="M336.42,531.34l.25-.26-.39-.06C336.47,531.05,336.1,531.44,336.42,531.34Z"/><path class="cls-5" d="M333.73,535.31c.22,0,.55-.24.82-.34l-.29-.11A1.23,1.23,0,0,1,333.73,535.31Z"/><path class="cls-5" d="M334.55,535l.45.16C335,534.89,334.79,534.89,334.55,535Z"/><polygon class="cls-5" points="335.78 533.42 334.88 533.2 335.81 533.5 335.78 533.42"/><polygon class="cls-5" points="333.98 536.32 333.44 536.31 334.27 536.37 333.98 536.32"/><path class="cls-5" d="M334.25,537c-.44,0-.65.35-.94.3.12.16.52.22.88.27C334,537.44,334,537.27,334.25,537Z"/><path class="cls-5" d="M334.72,537.65a2.55,2.55,0,0,0-.53-.11A1.64,1.64,0,0,0,334.72,537.65Z"/><path class="cls-5" d="M335,535.61a1.36,1.36,0,0,0-.56.38l.58-.27A.52.52,0,0,0,335,535.61Z"/><path class="cls-5" d="M335.05,535.71h0a1.84,1.84,0,0,1,0,.24S335.05,535.85,335.05,535.71Z"/><path class="cls-5" d="M335,535.59v0C335.07,535.59,335.09,535.58,335,535.59Z"/><path class="cls-5" d="M335.42,534.27c.39.06.84.28,1.27-.17C336.24,534.1,336,534.36,335.42,534.27Z"/><path class="cls-5" d="M335.73,535.25l.06-.32a1.36,1.36,0,0,1-.57.13Z"/><polygon class="cls-5" points="335.96 535.33 335.73 535.25 335.71 535.37 335.96 535.33"/><path class="cls-5" d="M335.15,537a.51.51,0,0,1,.44.31.77.77,0,0,0,.05-.53C335.45,536.82,335.08,536.84,335.15,537Z"/><path class="cls-5" d="M335.16,536.36l0,0C335.25,536.35,335.26,536.33,335.16,536.36Z"/><path class="cls-5" d="M336,538.8l.1,0-.1,0Z"/><path class="cls-5" d="M335.75,536.73c.08-.16-.09-.19-.29-.2a.53.53,0,0,1,.18.26C335.73,536.77,335.79,536.76,335.75,536.73Z"/><path class="cls-5" d="M335.12,538a2.44,2.44,0,0,0,.27-.3C335.22,537.79,335,538,335.12,538Z"/><path class="cls-5" d="M335,536.47h0C334.89,536.53,335,536.51,335,536.47Z"/><path class="cls-5" d="M335,536.47a2.35,2.35,0,0,0,.42.06.81.81,0,0,0-.26-.15Z"/><path class="cls-5" d="M340,538.17c-.57.13-1.18,0-.65-.48-.5-.15-2.3.53-3.27,1.06a1.13,1.13,0,0,1,.89.06c.28-.18.54-.82,1.12-.72.39.29-.12.35-.37.62.66-.35,1.15.18,2.16-.18l-.45-.23C339.61,538.25,339.9,538.3,340,538.17Z"/><path class="cls-5" d="M336,538.2l-.1-.1c-.06.16-.26.32-.65.61a1.24,1.24,0,0,0,.74.06l-.08-.59Z"/><path class="cls-5" d="M335.77,537.59c.63-.08,1,.13,1.59-.23-.14-.32-.58-.09-.9-.22.3.5-.38-.06-.62.43a.66.66,0,0,1-.25-.25,1.3,1.3,0,0,1-.2.36l0,0h0c.07,0,.12-.06.08,0h0l.23,0c-.08.19-.15.07-.23,0l-.1,0h0l.48.44C336,538,335.91,537.83,335.77,537.59Z"/><path class="cls-5" d="M338.09,534l-.14.06C338,534.09,338.09,534.09,338.09,534Z"/><path class="cls-5" d="M337.78,534.35c-.1,0-.35,0-.32-.13s.29-.08.49-.14c-.19,0-.52-.15-.75.17l.1,0a2.41,2.41,0,0,1-.93.75A9.56,9.56,0,0,0,337.78,534.35Z"/><path class="cls-5" d="M336.93,535.94l.43.37.46-.38-.31.1C337.56,535.74,337.19,535.91,336.93,535.94Z"/><polygon class="cls-5" points="335.71 538.93 335.05 539.05 336.03 539.06 335.71 538.93"/><polygon class="cls-5" points="335.95 539.5 335.38 539.63 335.76 539.7 335.95 539.5"/><path class="cls-5" d="M352.07,570.69l.2.09A.59.59,0,0,0,352.07,570.69Z"/><path class="cls-5" d="M351.85,569.72l-.29,0C351.73,569.78,351.85,569.76,351.85,569.72Z"/><path class="cls-5" d="M340,553.9c-.47.34-1.22.78-.6.58l.6-.23C339.85,554.14,339.89,554,340,553.9Z"/><path class="cls-5" d="M346.4,562.75l.17-.11-.62,0Z"/><path class="cls-5" d="M349,562.18l-.33.37A1.31,1.31,0,0,0,349,562.18Z"/><path class="cls-5" d="M354.18,575.76l.67,0C354.78,575.5,354.49,575.69,354.18,575.76Z"/><path class="cls-5" d="M337.84,545.45a.82.82,0,0,0-.26.52C337.88,545.67,338.36,545.36,337.84,545.45Z"/><path class="cls-5" d="M345.43,572.12a.64.64,0,0,0,.41,0A.53.53,0,0,0,345.43,572.12Z"/><path class="cls-5" d="M337.71,546.45l.13-.13c-.14-.09-.26-.19-.26-.35C337.36,546.19,337.24,546.4,337.71,546.45Z"/><path class="cls-5" d="M358.93,594.93l-.06.06C359,595,359,595,358.93,594.93Z"/><path class="cls-5" d="M354.24,602.19a.52.52,0,0,1-.11-.21S354.12,602.1,354.24,602.19Z"/><path class="cls-5" d="M336.33,541.94c-.07-.12-.07,0,0,0Z"/><path class="cls-5" d="M338.6,540.66a.77.77,0,0,0,.31,0A1.1,1.1,0,0,1,338.6,540.66Z"/><path class="cls-5" d="M341.89,546.63h0C342,546.57,342,546.58,341.89,546.63Z"/><path class="cls-5" d="M336.56,541.67a.85.85,0,0,0-.14.21A.68.68,0,0,0,336.56,541.67Z"/><path class="cls-5" d="M336.28,541.78l0-.13C336.2,541.66,336.14,541.7,336.28,541.78Z"/><path class="cls-5" d="M336.41,542.1a.28.28,0,0,1,0-.22.14.14,0,0,1-.09.06A.76.76,0,0,1,336.41,542.1Z"/><path class="cls-5" d="M354.46,585.19l0,0C354.7,585.29,354.64,585.24,354.46,585.19Z"/><path class="cls-5" d="M347.29,555.37h0l0,0Z"/><path class="cls-5" d="M347.87,555.69c-.82,0-.75-.11-.63-.3l-1.74.64Z"/><path class="cls-5" d="M352.89,572.94l.46-.46c1,.12.78.49,1.48,0-1.94.48-.54-1.17-2.47-.68l.34-.32c0,.06.12,0,.11.11.82-.66-1.47.08-1.34-.51a.57.57,0,0,1,.6-.37l-.58-.27c0-.13.34-.19.34-.06l-.32-.57.05,0a7.69,7.69,0,0,1-1.07-.11c.23-.23.23,0,.45-.09l-.56-.21c.46-.27,1-.13,1,.13,1.84-.85-.56-.15.37-1.15l.34.26c1-.51.57-.65,1.15-1.2-.33.18-1.52,1.2-2.1,1,.12-.14.15-.3-.3-.39.69-.19.47-.34.36-.57l.91-.24c-.33-.19-.79,0-1.24-.08,0-.32.7-.57,1.27-.81,0-.51-1,.64-1.36.13.24-.49-.21-.66-.88-1,.23-.36.56-.11.8-.28l-.79,0c0-.07.23-.11.34-.13-.34-.13-.91.23-1.25,0-1,.19,1.28-1.06,0-1.14.23-.17.57-.11.91-.24a5.18,5.18,0,0,0-1.8-.49l.49-.54a2.92,2.92,0,0,1-2.26.2l-.69.45-.62-.36a1.93,1.93,0,0,1,.86-.16l-.24,0a2.09,2.09,0,0,1,1.37-.34l-.51.33a7.19,7.19,0,0,0,1.76-.25.44.44,0,0,1-.29-.1,1.21,1.21,0,0,0,.38-.06c.09-.05-.12,0-.38-.06l1-.39-.41.08.46-.83c-1.15-.19-2.76-.18-3.39-.81a8.16,8.16,0,0,0,2.11-.53c-.88.46.55.47.47.91,0-.23.47-.3.63-.29l-1-.45c.72-.19.5-.3.74-.56-1.38.53-1.08-.25-1.6-.41.48-.15,1-.22,1,.16,1-.68-1.8,0-1-.65,0,.08,0,.15.23.11-.48-.07-.27-.64.17-.65l0,.08a1.39,1.39,0,0,0-1.69-1.43c.15,0,1.48-.33,1.73-.36l-4.34.13c1.06-.2,3.44-1.21,4.16-.92.11-.17.23-.38-.21-.56a4.41,4.41,0,0,1-1.57.55,7.45,7.45,0,0,0,1.43-1.1c-.19.2-1.86.5-1.86.27.25,0,1.6-.46,1.79-.43L345.1,554a4.55,4.55,0,0,0,1.77-.59c-.29.14-.09-.47-.29-.56l-.31.32c.08-.66-2.41,0-2.49-.58.35,0,2.08-.39,2.2-.74-.86.08-4.1.47-4.88.12l.44-.23-.64-.25a45.07,45.07,0,0,1,5.2,0c.3-.33.53-.21.39-.54a.57.57,0,0,1,.77.09l.07-.86c-.95.3-1.12-.33-1.91-.08l1.22.58c-.94.29-2.84.26-2.83-.34a10.59,10.59,0,0,1,2.05-.47c-.35,0-.77-.35-.55-.46l.57.09c.27-.41-1.4-.15-.6-.77,0-.15,1.13-.73.56-.59a28.32,28.32,0,0,1-5.25,1.57,8.35,8.35,0,0,1,1.35-1.25c.8-.45,2.13-.25,2.81-.63a2.24,2.24,0,0,1-.73,0c.18-.19.82-.16.62-.42-1,.22-.08-.62-.85.09-.36-.21.11-.36,0-.68a4.72,4.72,0,0,1-2.57.07,3.1,3.1,0,0,0,.69-.27c-.07-.61.28-1,.14-1.59.22-.12.43-.46.88-.46-.19,0-.54,0-.61-.17.74-.56.23.33,1.17-.19-.57.13-.9-.22-1.32-.36-.84.31,0,.6.41.74a4.81,4.81,0,0,1-3.28-.15c-.42-.38.72-.42.53-.45,0-.9-2.3-.14-1.63-1.09a7,7,0,0,1,2.05-.64c.39.29-.33.7-.23.94l.28-.41c.29.05.55.24.36.44.62-.43-.26-1.48.19-2.31-.29,0-.61-.17-.89,0l.16.18c-.56.36-1-.16-1.17.18-.51-.15-1.28-.28-1-.76l.85-.32c-.25.08-.44.4-.15.44-.43-.06,1-.93-.17-.79l-.53.44c-.52-.16-1.54-.25-1.36-.67-.81.39.12.05-.82.57,1.2-.56.2.91,1.42.2-1.1.58-.38.57-1.28,1.18.28-.09.52-.27.46.06h.27l0,0,0,0c.05,0,.06,0,0,0a1.28,1.28,0,0,1,.4-.27c.7,0,.8.43,1.19.49-.09.21-.35,0-.63.2l.57.09c-.63.2-.93.75-1.42.45l.08.38c-.3.31-.36.65,0,.75-.09.22.82.25.28.23l.56.47-.16.05c.07.59,1.38.87.41,1.84.21.15.46.29.37.66l-.54.21c.26.2-.35.89.26.84-1.41.67,0,1.28-.14,1.78l.72-.18c.05.31.33.54.72.82l.63-.19c.61.17-.23.94,0,1.42-.26,0-.23-.11-.11-.24-1.27,1,1.4,1,.5,1.81.27.07.22.19.09.33a.06.06,0,0,0-.05,0,.18.18,0,0,0,0,.06c-.09.09-.2.18-.29.28a1.2,1.2,0,0,0,.3-.26.79.79,0,0,0,.37.35l-.67.26,0,0c-.21.22.36,0,.85-.19a1.64,1.64,0,0,0,.47.09c-1.07.43.49.31-.64.8.6-.05.64.66,1.88.41-.16.05-.22.12-.26,0-.09.21-.17.42.21.48l-.85.31,1.27.06a1.73,1.73,0,0,1-1.48.51c1.18.27.51.34,1.66.53l-.56.13c.06.16.89.22.45.45-1,.67.37,1.9-.36,3.14,1.61-.65-.62.65.68.33-.38.17-.56.36-.95.3.52.39-.41.91.76,1-.38.17-.6,0-.82.17.1,0,.38.06.16.18s-.34,0-.54,0c.21.49,1.43.21,2.57-.07-.46.4-.35.51.44.49-.35.19-.69.44-.91.17,0,.19-.25,1.22.66,1-.21.11,0,.26.12.28.06.41,0,.46.18.83l.12-.15c1.13-.15.33.25.55.53l-.12,0c-.59.93.47.2-.24,1.16L346,567c1.48-.34-.69.86,0,1.12l.35-.26c.56.09-1.82,1.18-1.94,1.45-.12.09-.23,0-.34-.06-.7.82.91-.17,1.24.21-.46.21-1.25.23-1.26.55-.35.26,1.8.43,1,1.08a1.25,1.25,0,0,1,1-.25c.22.27-1.16,1.23.08,1.19a1.11,1.11,0,0,1-.27.13c.37.16.71.64,1.39.61-2.3.87,1.55,1.16-.62,1.75l.32.71-.23,0c0,.51.55.53,1.12.55-.12.15-.34.12-.46.15-.25.8-.14.84,1.1,1.12l-.68.25c.45.05-.84,1.3.17,1.74a.88.88,0,0,1-.33,0c1,.52-1.46,2.34,1.18,1.91l.77.33c0-.7,1.14-.22,1.49-.6.22.21-.59.87-.81.6l.12-.09c-1.37.26-.25.93-1.17,1.17.42,1.25,0,2.69.29,3.89l1-.42.06.43c-.21.18-.78.37-.81.06-.55.32.63.36.85.31-.26.69-1.27.11-1.25.29l.15.22.11-.09c.47.08.93,0,1,.34-.15.29-.61.3-.63.4s-.1.06,0,.14l.05.55.77-.44c.46.12.09.51,1,0-1.33.75,0,2.09-.36,2.43.69.16.77.48.8.9.15-.15,1.05-.46,1-.09-1.94.4-.66.85-1.95,1.51.84-.5.49.91,1.67.17-.07.32-.7.21-1.09.55.92.47-.07,1.63.41,2.4a2.26,2.26,0,0,1,1-.23l-1.12.79c.16.13,1.48-.24.7.3.19-.1.49-.25.6-.16-.76,2,1.93,3.08.1,5.38.43-.36.52-.22.58,0,.09-.15.62-.17.95-.29l-.75,1c1-.13.28.74,1.19.56l-.22-.18c1.14,0,2.24-1.06,3.62-1.39-1.3,0,1.54-1.37-.33-1.43.24-.2.46,0,.76-.17-.62,0-.79-.11-.61-.49h.15c-.38-.82.1-1.35.21-2.43l-.65.26c0-.23.23-.33.37-.48-1.09,0,.1.6-1.08.69,1.29-.65-.39-1.47,1.12-2.08-.08-.33-.75.3-.83,0l.39-.2-.56.07c0-.24.53-.49.88-.59,0,.06.14.11.19.16.42-.41-.38-.72-.25-.86l-.17.38c-.64-.76-.38-2-1.47-2.59l-.3.15c-.76-.48.21-.61-.26-1.24h.08c-.35,0-.56-.2-.58-.4.42.07.63-.54,1.1-.42-.82-.52-.59-.21-1.89-.34l.49-.25c-.52,0-.77,0-1-.29.54.17.74-.45,1.43-.29.95-1.06-1.47-.78.12-1.58-1.55.06-.63.86-1,.76-.43.29-1.17,0-1.09-.26s1.76-.91,1.56-1.5c0,.06.12,0,.13.09.31-.32-.62-.29-.09-.73-.93.09-.05-.37-1.19-.11l.42.48c-.38-.23-1.78-.16-1.28-.85a2.39,2.39,0,0,1,.77.11c.29-.24-.3-.23,0-.48,1.14-.26.43.6,1.38.7.43-.3-1-.41.27-.58-1.61.19,0-.64-1.26-.71l.68-.16c-.12,0-.48-.08-.49-.21l.93,0c-.83-.13.48-.81,0-1,.2.65-.77.38-1.19.79-1.13-.56,1.64-1,1.06-1.77.13.1-.28.57-.64.47a1.7,1.7,0,0,1,.61-.72c-.31-.56-.67.29-1.15.15.76-.44-.42-.21-.75-.4l.68-.19c.25-.8-1.48.21-1.12-.55h1l-.34-.25.8-.15c-.68-.19-.56-.34-.43-.75-.46.22-1.26.3-1.36,0,.35-.32.68-.07.46-.47.46,0,1-.06.45.3.23,0,.45,0,.68-.07.41-.35-.05-.59-.1-.74a.26.26,0,0,1-.11.21l-1.12-.36a.9.9,0,0,1,.68-.13c-.11-.1-.45-.1-.56-.27.57-.11,1.14-.28,1.48-.09l-.78-.42c.23-.11.58-.49.8-.47.24-.42-1.3-.51-1-1.06a.49.49,0,0,1-.33-.08c0-.45.59-1-.31-1.27l.93-.55c-.34-.32-1.16.72-1.71.19-.44-.36.8-.41,1-.64-.57-.08-1.7-.19-1-.83C352.9,572.69,352.78,572.84,352.89,572.94Zm-1.74-4.57c.17.06.66.11.28.29C350.61,568.78,351,568.59,351.15,568.37Zm-3.62-6.67c.24,0,.16.14-.07.33C347.38,562,347.38,561.85,347.53,561.7Zm-10.26-18.55h0C337.09,543.42,337.18,543.32,337.27,543.15Zm.18-.51a.56.56,0,0,0-.29.06c.18,0,.21.07.2.2C337.53,542.82,337.64,542.73,337.45,542.64Zm12.77,45.15.15-.13C350.62,587.79,350.43,587.79,350.22,587.79Z"/><path class="cls-5" d="M348.69,562.25l-.36.14A.47.47,0,0,0,348.69,562.25Z"/><path class="cls-5" d="M354.05,575.76v0l.13,0Z"/><path class="cls-5" d="M345.06,547.56a.89.89,0,0,1-.31.27C344.92,547.78,345.05,547.71,345.06,547.56Z"/><path class="cls-5" d="M335.67,540.73l.25.22c-.07-.12.07-.2.16-.3C335.92,540.7,335.7,540.81,335.67,540.73Z"/><path class="cls-5" d="M339.26,537.22c-.1,0,0-.08-.13-.1l-.31.1A.24.24,0,0,0,339.26,537.22Z"/><path class="cls-5" d="M337.87,539.85c.57-.18.33-.29.17-.45,0,0,0,0,0,0C337.23,539.6,337.55,539.73,337.87,539.85Z"/><path class="cls-5" d="M338,539.36a.22.22,0,0,1-.06-.17C337.62,539.26,337.9,539.28,338,539.36Z"/><path class="cls-5" d="M336.92,542.21c.12-.13-.75.15-.53,0C335.62,542.35,337.44,542.6,336.92,542.21Z"/><polygon class="cls-5" points="339.73 539.18 339.04 539.44 339.64 539.39 339.73 539.18"/><path class="cls-5" d="M339.62,540.81l.11-.35a.32.32,0,0,1-.26,0C339.5,540.64,339.41,540.88,339.62,540.81Z"/><path class="cls-5" d="M339.47,540.44a.21.21,0,0,0-.19-.21A.45.45,0,0,0,339.47,540.44Z"/><polygon class="cls-5" points="340.06 539.53 339.93 539.66 339.94 539.89 340.06 539.53"/><path class="cls-5" d="M340.38,544.1l.3.27c.25,0,.37-.16.24-.26S340.6,544,340.38,544.1Z"/><path class="cls-5" d="M342.05,542.56a1.88,1.88,0,0,1-.5.3l.89-.24Z"/><path class="cls-5" d="M342.53,543.47c.25,0,.83.28.66-.12C342.94,543.38,342.64,543.11,342.53,543.47Z"/><polygon class="cls-5" points="342.78 548.74 342.75 548.66 341.3 549.07 342.78 548.74"/><path class="cls-5" d="M347.45,552.16c.24-.49-.92.15-.58-.32-.37,0-.27.39-.6.37C346.7,552.35,346.53,552.53,347.45,552.16Z"/><path class="cls-5" d="M346.27,552.21l-.25-.06A.59.59,0,0,0,346.27,552.21Z"/><polygon class="cls-5" points="353.72 603.33 353.49 603.66 353.93 603.37 353.72 603.33"/><path class="cls-5" d="M354.93,603.51l-.91.32.88-.08C354.84,603.7,354.73,603.61,354.93,603.51Z"/><path class="cls-5" d="M352.81,567.16l-.22.05c-.23.1-.23.16-.24.29Z"/><polygon class="cls-5" points="353.06 570.76 353.07 570.7 352.26 571.04 353.06 570.76"/><path class="cls-5" d="M354.92,573.32c0-.12-.22-.21-.22-.33C354.92,573.2,353.89,573.64,354.92,573.32Z"/><path class="cls-5" d="M407.58,581.89c0,.13.57-.08.68-.09C408.08,581.65,407.43,581.94,407.58,581.89Z"/><polygon class="cls-5" points="405.72 580.42 405.98 580.38 405.31 580.28 405.72 580.42"/><path class="cls-5" d="M405.26,578.69c-1,.44.33.58.06,1l-.22.11.86-.08C405.72,579.37,405.05,579,405.26,578.69Z"/><path class="cls-5" d="M407.2,577.16c-.38.17-.4-.1-.07.25l.09-.06A.33.33,0,0,1,407.2,577.16Z"/><path class="cls-5" d="M407.22,577.35c.08.17.3-.21,0,0Z"/><path class="cls-5" d="M406.76,576.57l.42.14c.22-.11.21-.34.41-.31C407.32,576.21,407.11,576.32,406.76,576.57Z"/><path class="cls-5" d="M406,576.55l.18.08C406.24,576.58,406.26,576.54,406,576.55Z"/><path class="cls-5" d="M406.53,576.81l-.39-.18c-.15.08-.48.17.15.09C406,576.78,406.29,576.75,406.53,576.81Z"/><path class="cls-5" d="M406.42,577c-.19.19-.28.4-.69.26C406,577.68,406.69,577.42,406.42,577Z"/><path class="cls-5" d="M404.18,578.89l-.24.26.38.06C404.13,579.18,404.5,578.79,404.18,578.89Z"/><path class="cls-5" d="M406.88,574.93c-.22.05-.56.24-.83.34l.3.1A1.06,1.06,0,0,1,406.88,574.93Z"/><path class="cls-5" d="M406.05,575.27l-.44-.17C405.63,575.35,405.82,575.35,406.05,575.27Z"/><polygon class="cls-5" points="404.82 576.81 405.72 577.03 404.79 576.73 404.82 576.81"/><polygon class="cls-5" points="406.62 573.91 407.16 573.92 406.33 573.87 406.62 573.91"/><path class="cls-5" d="M406.35,573.27c.44,0,.66-.35.94-.3-.12-.16-.52-.22-.88-.27C406.63,572.8,406.63,573,406.35,573.27Z"/><path class="cls-5" d="M405.88,572.59a2.55,2.55,0,0,0,.53.11A1.2,1.2,0,0,0,405.88,572.59Z"/><path class="cls-5" d="M405.59,574.62a1.17,1.17,0,0,0,.56-.38l-.58.28S405.58,574.59,405.59,574.62Z"/><path class="cls-5" d="M405.55,574.52h0a1.84,1.84,0,0,1,0-.24S405.55,574.38,405.55,574.52Z"/><path class="cls-5" d="M405.59,574.65v0C405.53,574.65,405.52,574.66,405.59,574.65Z"/><path class="cls-5" d="M405.18,576c-.38-.06-.84-.29-1.27.17C404.36,576.14,404.6,575.88,405.18,576Z"/><path class="cls-5" d="M404.87,575l-.06.32a1.37,1.37,0,0,1,.57-.14Z"/><polygon class="cls-5" points="404.64 574.9 404.87 574.99 404.89 574.87 404.64 574.9"/><path class="cls-5" d="M405.45,573.23a.52.52,0,0,1-.44-.31.83.83,0,0,0-.05.53C405.16,573.42,405.52,573.4,405.45,573.23Z"/><path class="cls-5" d="M405.45,573.87h-.05S405.34,573.9,405.45,573.87Z"/><path class="cls-5" d="M404.6,571.44l-.1,0,.11,0Z"/><path class="cls-5" d="M404.85,573.51c-.08.15.09.18.3.2a.53.53,0,0,1-.19-.26C404.87,573.46,404.81,573.48,404.85,573.51Z"/><path class="cls-5" d="M405.49,572.26a2,2,0,0,0-.28.3C405.39,572.44,405.65,572.24,405.49,572.26Z"/><path class="cls-5" d="M405.56,573.77h0C405.71,573.7,405.65,573.73,405.56,573.77Z"/><path class="cls-5" d="M405.56,573.77a1.61,1.61,0,0,0-.41-.06.76.76,0,0,0,.25.15Z"/><path class="cls-5" d="M400.59,572.07c.56-.14,1.17,0,.64.48.5.15,2.3-.54,3.27-1.06a1.15,1.15,0,0,1-.88-.06c-.28.18-.55.81-1.12.72-.4-.29.11-.36.36-.62-.66.35-1.15-.19-2.16.18l.45.22C401,572,400.71,571.94,400.59,572.07Z"/><path class="cls-5" d="M404.59,572l.1.09c.06-.16.26-.31.65-.6a1.21,1.21,0,0,0-.73-.06l.07.58Z"/><path class="cls-5" d="M404.84,572.64c-.64.08-1-.12-1.59.23.13.33.57.1.89.22-.3-.5.39.07.63-.42a.63.63,0,0,1,.24.25,1.62,1.62,0,0,1,.2-.36l0,0h0c-.07,0-.11.06-.08,0h0l-.24,0c.08-.19.15-.07.24,0h.1l-.49-.45C404.64,572.27,404.7,572.41,404.84,572.64Z"/><path class="cls-5" d="M402.52,576.21a.39.39,0,0,1,.14-.05C402.57,576.14,402.52,576.14,402.52,576.21Z"/><path class="cls-5" d="M402.83,575.89c.09,0,.35,0,.32.13s-.3.08-.49.14c.18,0,.51.15.74-.18h-.09a2.48,2.48,0,0,1,.93-.76A9.15,9.15,0,0,0,402.83,575.89Z"/><path class="cls-5" d="M403.67,574.29l-.42-.36-.47.37.31-.1C403,574.49,403.42,574.33,403.67,574.29Z"/><polygon class="cls-5" points="404.89 571.3 405.56 571.18 404.57 571.17 404.89 571.3"/><polygon class="cls-5" points="404.65 570.74 405.22 570.6 404.84 570.54 404.65 570.74"/><path class="cls-5" d="M388.53,539.54l-.2-.08A.56.56,0,0,0,388.53,539.54Z"/><path class="cls-5" d="M388.76,540.52l.28-.06C388.87,540.46,388.76,540.47,388.76,540.52Z"/><path class="cls-5" d="M400.61,556.34c.47-.34,1.22-.78.6-.58l-.6.23C400.76,556.09,400.72,556.21,400.61,556.34Z"/><path class="cls-5" d="M394.2,547.48l-.17.11.63,0Z"/><path class="cls-5" d="M391.61,548.05l.33-.36A1.45,1.45,0,0,0,391.61,548.05Z"/><path class="cls-5" d="M386.43,534.48l-.68,0C385.82,534.74,386.11,534.54,386.43,534.48Z"/><path class="cls-5" d="M402.77,564.79a.84.84,0,0,0,.25-.52C402.73,564.57,402.24,564.88,402.77,564.79Z"/><path class="cls-5" d="M395.17,538.11a.61.61,0,0,0-.4,0A.47.47,0,0,0,395.17,538.11Z"/><path class="cls-5" d="M402.89,563.79a.49.49,0,0,0-.12.13.43.43,0,0,1,.25.35C403.25,564.05,403.36,563.83,402.89,563.79Z"/><path class="cls-5" d="M381.68,515.31a.2.2,0,0,1,.06-.07C381.65,515.26,381.65,515.28,381.68,515.31Z"/><path class="cls-5" d="M386.36,508a.65.65,0,0,1,.11.22C386.5,508.21,386.48,508.14,386.36,508Z"/><path class="cls-5" d="M404.27,568.3c.08.11.07,0,0,0Z"/><path class="cls-5" d="M402,569.58a1,1,0,0,0-.31,0A1,1,0,0,1,402,569.58Z"/><path class="cls-5" d="M398.71,563.61h0C398.6,563.67,398.62,563.65,398.71,563.61Z"/><path class="cls-5" d="M404,568.56a.52.52,0,0,0,.14-.2A.8.8,0,0,0,404,568.56Z"/><path class="cls-5" d="M404.33,568.46a1,1,0,0,0,0,.12C404.4,568.57,404.47,568.54,404.33,568.46Z"/><path class="cls-5" d="M404.19,568.14a.28.28,0,0,1,0,.22s.07-.06.09-.06Z"/><path class="cls-5" d="M386.14,525.05l.05,0C385.9,525,386,525,386.14,525.05Z"/><path class="cls-5" d="M393.31,554.87h0v0Z"/><path class="cls-5" d="M392.73,554.55c.82,0,.76.11.63.3l1.74-.64Z"/><path class="cls-5" d="M387.72,537.29l-.47.47c-1-.13-.78-.49-1.48,0,2-.49.54,1.17,2.48.68l-.35.32c0-.07-.11,0-.11-.11-.81.66,1.48-.09,1.34.51a.56.56,0,0,1-.6.36l.59.27c0,.13-.35.2-.35.07l.33.57H389a9.14,9.14,0,0,1,1.07.12c-.23.23-.22,0-.45.08l.56.21c-.46.28-1,.13-1-.12-1.84.85.57.15-.37,1.14l-.33-.25c-1,.51-.57.65-1.16,1.2.34-.18,1.52-1.2,2.1-1-.11.15-.14.31.3.4-.69.19-.46.34-.36.57l-.91.23c.33.19.79,0,1.24.09,0,.32-.69.57-1.27.8,0,.51,1-.63,1.37-.12-.24.48.2.65.88,1-.24.36-.57.11-.8.28l.79,0c0,.06-.23.1-.35.13.34.12.92-.24,1.25,0,1-.19-1.28,1.07,0,1.15-.23.17-.57.11-.92.23a5.18,5.18,0,0,0,1.8.49l-.49.55a2.93,2.93,0,0,1,2.26-.21c.3-.19.57-.35.69-.45l.63.37a2,2,0,0,1-.86.16l.24,0a2.2,2.2,0,0,1-1.38.34l.51-.34a6.6,6.6,0,0,0-1.75.26.53.53,0,0,1,.29.09,1.24,1.24,0,0,0-.39.07c-.09,0,.13,0,.38.06l-1,.39.41-.08-.45.83c1.15.18,2.76.18,3.38.8a8.63,8.63,0,0,0-2.1.53c.87-.46-.56-.46-.48-.9,0,.23-.47.3-.63.29l1,.45c-.73.18-.5.3-.75.56,1.38-.53,1.09.25,1.6.41-.47.15-1,.21-1-.16-1,.67,1.81,0,1,.65,0-.08,0-.15-.23-.12.48.08.28.65-.17.65l0-.08a1.38,1.38,0,0,0,1.68,1.44c-.15,0-1.47.33-1.73.36l4.34-.14c-1.06.2-3.44,1.22-4.15.92-.11.18-.24.39.2.56a4.2,4.2,0,0,1,1.57-.54A8.12,8.12,0,0,0,393.7,556c.18-.19,1.85-.49,1.86-.27a17.87,17.87,0,0,1-1.8.43l1.75.09a4.63,4.63,0,0,0-1.78.6c.3-.14.1.46.29.56l.31-.33c-.07.67,2.41,0,2.49.59-.35,0-2.08.38-2.2.74.86-.09,4.11-.48,4.88-.13l-.44.23.65.26a47.44,47.44,0,0,1-5.2,0c-.31.32-.54.21-.4.53a.56.56,0,0,1-.77-.09l-.07.86c1-.3,1.13.33,1.91.08l-1.22-.57c.94-.3,2.84-.26,2.83.34a9.72,9.72,0,0,1-2.05.46c.35,0,.78.36.56.47l-.58-.09c-.27.4,1.41.15.6.77,0,.15-1.13.72-.55.59a28.46,28.46,0,0,1,5.24-1.57,8.36,8.36,0,0,1-1.35,1.25c-.8.45-2.12.25-2.81.63a2.3,2.3,0,0,1,.73,0c-.18.2-.82.17-.62.43,1-.22.08.61.86-.09.35.21-.12.36,0,.68a4.6,4.6,0,0,1,2.56-.08,3.07,3.07,0,0,0-.69.28c.07.61-.28,1-.14,1.59-.22.11-.43.45-.88.46.2,0,.55,0,.62.17-.75.56-.24-.34-1.18.19.57-.14.9.22,1.32.36.85-.31,0-.6-.41-.74a4.81,4.81,0,0,1,3.28.15c.43.37-.72.41-.52.44,0,.91,2.29.15,1.62,1.09a7,7,0,0,1-2.05.65c-.39-.29.33-.7.23-.94l-.28.41c-.28-.05-.54-.24-.36-.44-.62.43.27,1.47-.19,2.3.29.05.61.18.89,0l-.16-.18c.56-.36,1,.15,1.17-.19.51.16,1.28.28,1,.77l-.85.32c.25-.08.45-.4.15-.44.43.06-1,.93.18.79l.53-.44c.51.16,1.53.25,1.35.67.82-.4-.12-.05.82-.58-1.19.56-.19-.9-1.41-.19,1.09-.58.37-.58,1.27-1.18-.28.09-.51.27-.45-.07H404s0,0,0,0l0,0s-.05,0,0,0a1.42,1.42,0,0,1-.39.27c-.7,0-.81-.43-1.19-.49.09-.22.35,0,.63-.2l-.58-.1c.63-.2.93-.75,1.42-.44l-.07-.38c.3-.31.36-.65,0-.76.09-.21-.83-.24-.29-.23l-.55-.46.15,0c-.07-.59-1.37-.88-.4-1.84-.22-.15-.47-.29-.37-.66l.53-.22c-.26-.19.35-.89-.26-.83,1.42-.68,0-1.28.14-1.79l-.72.19c0-.31-.33-.54-.72-.83l-.63.2c-.61-.17.23-.94,0-1.43.25,0,.22.12.1.25,1.27-1-1.4-1-.5-1.81-.27-.08-.22-.2-.08-.34,0,0,0,0,0,0a.13.13,0,0,0,0-.06l.29-.28a1.83,1.83,0,0,0-.3.25.78.78,0,0,0-.37-.35l.67-.25,0,0c.21-.23-.36,0-.85.19a1.57,1.57,0,0,0-.47-.09c1.07-.43-.48-.31.65-.8-.61,0-.65-.67-1.88-.42.15,0,.22-.11.25,0,.09-.21.18-.42-.21-.48l.85-.32-1.27,0a1.79,1.79,0,0,1,1.48-.52c-1.18-.26-.51-.34-1.66-.52l.57-.14c-.07-.16-.9-.22-.46-.45,1-.67-.37-1.89.36-3.13-1.6.64.62-.65-.67-.34.37-.16.56-.36.94-.29-.52-.39.42-.91-.76-1,.38-.17.6-.06.82-.17-.09,0-.38-.06-.16-.18s.35,0,.54,0c-.21-.48-1.43-.2-2.57.08.47-.4.36-.51-.44-.49.35-.19.7-.45.92-.17,0-.19.24-1.22-.67-1,.21-.12,0-.26-.12-.28,0-.41,0-.47-.17-.83l-.12.15c-1.14.15-.34-.25-.55-.53l.11,0c.59-.93-.46-.21.24-1.16l-.67.23c-1.48.34.7-.87,0-1.12l-.35.26c-.56-.09,1.82-1.18,1.94-1.45.12-.09.23,0,.34.06.71-.83-.91.17-1.24-.21.46-.22,1.25-.24,1.26-.56.35-.25-1.8-.42-1-1.08a1.25,1.25,0,0,1-1,.26c-.22-.28,1.17-1.23-.08-1.19a.82.82,0,0,1,.28-.14c-.37-.15-.72-.63-1.39-.6,2.29-.87-1.56-1.16.61-1.76l-.31-.7.22,0c0-.51-.55-.53-1.12-.55.12-.15.35-.13.46-.15.25-.81.14-.85-1.1-1.12l.69-.26c-.45,0,.83-1.29-.18-1.74a.94.94,0,0,1,.34,0c-1-.53,1.45-2.35-1.19-1.92l-.77-.32c0,.7-1.14.21-1.49.6-.22-.22.59-.87.81-.6l-.11.09c1.36-.26.25-.94,1.16-1.17-.41-1.25,0-2.69-.29-3.9l-1,.43-.05-.43c.21-.18.77-.37.81-.07.54-.32-.63-.36-.86-.3.26-.7,1.27-.11,1.25-.3l-.15-.22-.1.09c-.48-.08-.94,0-1-.34.14-.28.61-.29.62-.39s.1-.06,0-.14l-.05-.55-.76.43c-.47-.12-.1-.5-1,0,1.34-.75,0-2.09.36-2.43-.69-.16-.76-.48-.8-.9-.14.15-1.05.46-1,.09,1.94-.4.65-.86,1.94-1.51-.84.5-.49-.91-1.67-.17.07-.33.71-.21,1.09-.55-.92-.48.07-1.63-.41-2.4a2.24,2.24,0,0,1-1,.22l1.13-.79c-.17-.13-1.49.25-.7-.29-.2.1-.5.25-.61.16.76-2-1.93-3.08-.1-5.39-.42.36-.51.23-.58.06-.08.14-.62.17-1,.28l.75-1c-1,.14-.27-.73-1.19-.55l.22.17c-1.14,0-2.24,1.07-3.61,1.4,1.29,0-1.55,1.36.33,1.43-.25.19-.47,0-.77.17.62,0,.79.1.61.48h-.15c.38.82-.09,1.35-.21,2.42l.66-.25c0,.23-.24.33-.38.48,1.09-.05-.1-.6,1.08-.7-1.29.66.39,1.48-1.12,2.09.09.32.76-.31.84,0l-.4.2.56-.07c0,.23-.52.48-.88.59,0-.06-.14-.12-.18-.16-.42.41.38.72.24.86l.18-.38c.63.76.37,2,1.46,2.59l.3-.15c.77.48-.2.61.26,1.24H384c.36,0,.57.2.59.4-.43-.08-.63.54-1.11.41.82.53.59.21,1.9.35l-.5.25c.52,0,.78,0,1,.29-.53-.17-.74.44-1.43.28-.94,1.06,1.47.78-.12,1.59,1.55-.06.63-.87,1-.76.43-.29,1.16,0,1.08.25s-1.75.92-1.56,1.51c0-.06-.12,0-.13-.1-.31.33.62.3.09.74.93-.09.05.37,1.19.1l-.41-.47c.38.23,1.77.16,1.28.84a2.46,2.46,0,0,1-.78-.1c-.29.24.3.22,0,.47-1.13.27-.42-.59-1.37-.69-.43.29,1,.4-.28.57,1.62-.18,0,.64,1.26.72l-.68.16c.12,0,.48.08.49.2l-.93,0c.84.12-.48.81,0,1-.21-.65.77-.37,1.18-.78,1.13.56-1.63,1-1.06,1.77-.13-.1.28-.58.64-.47a1.56,1.56,0,0,1-.61.71c.31.57.67-.28,1.16-.14-.77.43.41.2.75.39l-.69.2c-.25.8,1.48-.22,1.12.55h-1l.33.25-.8.15c.68.19.56.34.44.74.46-.21,1.25-.3,1.36,0-.35.32-.69.06-.47.47-.46,0-1,.06-.44-.3-.23,0-.46,0-.69.06-.4.36,0,.59.1.75a.33.33,0,0,1,.11-.22l1.13.36a.91.91,0,0,1-.69.13c.11.11.45.11.56.28-.57.1-1.14.27-1.47.08l.78.43c-.23.1-.58.48-.81.46-.24.42,1.3.51,1,1.07a.52.52,0,0,1,.34.08c0,.44-.6,1,.3,1.27l-.92.55c.33.32,1.15-.72,1.7-.19.45.36-.8.4-1,.64.57.08,1.7.19,1,.82C387.71,537.55,387.82,537.4,387.72,537.29Zm1.73,4.57c-.16-.05-.66-.11-.27-.29C390,541.46,389.64,541.64,389.45,541.86Zm3.63,6.68c-.25,0-.17-.14.06-.33C393.22,548.28,393.22,548.38,393.08,548.54Zm10.26,18.55h0C403.51,566.81,403.43,566.91,403.34,567.09Zm-.18.5a.49.49,0,0,0,.29-.05c-.18,0-.22-.08-.2-.2C403.08,567.42,403,567.51,403.16,567.59Zm-12.77-45.15-.16.13C390,522.44,390.17,522.45,390.39,522.44Z"/><path class="cls-5" d="M391.91,548a2,2,0,0,1,.37-.14A.46.46,0,0,0,391.91,548Z"/><path class="cls-5" d="M386.55,534.47h0l-.12,0Z"/><path class="cls-5" d="M395.54,562.68a.89.89,0,0,1,.31-.27C395.68,562.45,395.55,562.53,395.54,562.68Z"/><path class="cls-5" d="M404.94,569.5l-.26-.22c.07.12-.06.21-.15.31C404.69,569.54,404.9,569.42,404.94,569.5Z"/><path class="cls-5" d="M401.34,573c.1,0,0,.08.13.09l.32-.1A.25.25,0,0,0,401.34,573Z"/><path class="cls-5" d="M402.73,570.38c-.57.18-.33.3-.17.46,0,0,0,0,0,0C403.37,570.64,403.05,570.51,402.73,570.38Z"/><path class="cls-5" d="M402.59,570.88a.16.16,0,0,1,.06.17C403,571,402.7,571,402.59,570.88Z"/><path class="cls-5" d="M403.69,568c-.13.13.75-.15.53,0C405,567.89,403.16,567.64,403.69,568Z"/><polygon class="cls-5" points="400.87 571.06 401.57 570.79 400.96 570.85 400.87 571.06"/><path class="cls-5" d="M401,569.42l-.11.36a.32.32,0,0,1,.26,0C401.11,569.6,401.19,569.36,401,569.42Z"/><path class="cls-5" d="M401.13,569.79a.22.22,0,0,0,.19.21A.44.44,0,0,0,401.13,569.79Z"/><polygon class="cls-5" points="400.55 570.71 400.67 570.58 400.66 570.35 400.55 570.71"/><path class="cls-5" d="M400.22,566.14l-.29-.27c-.26,0-.38.16-.25.26S400,566.26,400.22,566.14Z"/><path class="cls-5" d="M398.55,567.67a1.88,1.88,0,0,1,.5-.29l-.88.23Z"/><path class="cls-5" d="M398.08,566.77c-.26,0-.84-.28-.67.12C397.67,566.86,398,567.13,398.08,566.77Z"/><polygon class="cls-5" points="397.82 561.5 397.86 561.58 399.3 561.17 397.82 561.5"/><path class="cls-5" d="M393.15,558.08c-.24.48.92-.16.58.32.37,0,.28-.39.6-.38C393.9,557.89,394.07,557.71,393.15,558.08Z"/><path class="cls-5" d="M394.33,558a1.31,1.31,0,0,0,.25.06A1.09,1.09,0,0,0,394.33,558Z"/><polygon class="cls-5" points="386.88 506.91 387.12 506.57 386.68 506.87 386.88 506.91"/><path class="cls-5" d="M385.68,506.72l.9-.31-.87.08C385.76,506.54,385.87,506.62,385.68,506.72Z"/><path class="cls-5" d="M387.79,543.07l.23,0c.23-.1.23-.17.23-.3Z"/><polygon class="cls-5" points="387.54 539.48 387.54 539.54 388.34 539.2 387.54 539.48"/><path class="cls-5" d="M385.69,536.91c0,.13.22.21.21.34C385.68,537,386.72,536.59,385.69,536.91Z"/><path class="cls-5" d="M466,528.79c0-.41-.56-.18-.67-.22C465.55,529.23,466.14,528.76,466,528.79Z"/><polygon class="cls-5" points="468.13 535.43 467.88 535.33 468.56 536.29 468.13 535.43"/><path class="cls-5" d="M468.62,541.85c.94-.67-.31-2.32,0-3.49l.21-.2-.82-.46C468.19,539.08,468.83,540.85,468.62,541.85Z"/><path class="cls-5" d="M466.63,545.33c.37-.21.35.73.09-.79a1.46,1.46,0,0,1-.09.15C466.64,544.83,466.64,545,466.63,545.33Z"/><path class="cls-5" d="M466.63,544.69c-.05-.67-.31.45,0,0Z"/><path class="cls-5" d="M466.92,547.77c-.11-.29-.22-.59-.35-.88-.21.19-.26,1-.43.68C466.33,548.47,466.55,548.28,466.92,547.77Z"/><path class="cls-5" d="M467.64,548.6l-.15-.46C467.4,548.22,467.37,548.34,467.64,548.6Z"/><path class="cls-5" d="M467.19,547.17l.3,1c.16-.13.48-.14-.1-.44C467.68,547.77,467.4,547.58,467.19,547.17Z"/><path class="cls-5" d="M467.32,546.62c.2-.49.32-1.14.68-.26C467.82,544.67,467.14,544.94,467.32,546.62Z"/><path class="cls-5" d="M469.66,542.12l.24-.68-.37-.57C469.71,541.15,469.35,542.18,469.66,542.12Z"/><path class="cls-5" d="M466.35,553.23c.2.06.56-.27.83-.33l-.21-.66C466.81,552.57,466.66,553.2,466.35,553.23Z"/><path class="cls-5" d="M467.18,552.9l.32,1C467.58,553,467.42,552.85,467.18,552.9Z"/><polygon class="cls-5" points="468.73 548.75 467.98 547.15 468.74 549.07 468.73 548.75"/><polygon class="cls-5" points="466.16 556.93 465.72 556.35 466.37 557.37 466.16 556.93"/><path class="cls-5" d="M466.06,559.38c-.37-.44-.71.5-.93,0a4.66,4.66,0,0,0,.59,1.8A2.67,2.67,0,0,1,466.06,559.38Z"/><path class="cls-5" d="M466.07,562.13a5.17,5.17,0,0,0-.35-.9A2.66,2.66,0,0,0,466.07,562.13Z"/><path class="cls-5" d="M467.34,555.54a1.08,1.08,0,0,0-.63.74l.6-.35Z"/><path class="cls-5" d="M467.33,555.91l0,0c0,.41-.05.7-.07.82C467.25,556.65,467.29,556.4,467.33,555.91Z"/><path class="cls-5" d="M467.34,555.45v.09C467.4,555.51,467.42,555.49,467.34,555.45Z"/><path class="cls-5" d="M468.19,551.33c.34.58.62,1.8,1.17.64C469,551.55,468.67,552.21,468.19,551.33Z"/><path class="cls-5" d="M468.1,555l.17-1c-.16,0-.39.2-.54-.09Z"/><polygon class="cls-5" points="468.26 555.52 468.1 555 468.03 555.39 468.26 555.52"/><path class="cls-5" d="M466.79,560.42a3,3,0,0,1,.18,1.51,7.71,7.71,0,0,0,.34-1.76C467.13,560.07,466.82,559.79,466.79,560.42Z"/><path class="cls-5" d="M467.11,558.24l0,.1C467.19,558.28,467.21,558.23,467.11,558.24Z"/><polygon class="cls-5" points="466.31 567.35 466.43 567.27 466.33 567.24 466.31 567.35"/><path class="cls-5" d="M467.42,560.08a1.06,1.06,0,0,0-.14-1,6.38,6.38,0,0,1,0,1.08C467.39,560.21,467.44,560.22,467.42,560.08Z"/><path class="cls-5" d="M466.18,563.66a5,5,0,0,0,.41-.73C466.38,563.14,466,563.57,466.18,563.66Z"/><path class="cls-5" d="M467,558.48a.25.25,0,0,1,0-.07C466.81,558.54,466.87,558.53,467,558.48Z"/><path class="cls-5" d="M467,558.48a2.5,2.5,0,0,0,.31.61,3.33,3.33,0,0,0-.14-.75Z"/><path class="cls-5" d="M469.81,569.55c-.53-.16-.86-1.42-.13-2.37-.26-1.06-2.13-.63-3.25.09.23.07.45.1.62,1.16.35-.31,1-2.17,1.38-1.24.08,1.41-.35,1.09-.73,1.71.75-.46.73,1.89,1.75,1.75l-.17-1.26C469.44,569.39,469.62,569.87,469.81,569.55Z"/><path class="cls-5" d="M466.76,565.35l0-.43a3.75,3.75,0,0,1-.92,1.35c.16.72.34.9.51,1,.12-.68.26-1.36.36-2Z"/><path class="cls-5" d="M466.94,563c.55.39.69,1.44,1.4.89.09-1.25-.4-.93-.58-1.7-.07,2-.26-.6-.75.8a5.86,5.86,0,0,1,0-1.09,9,9,0,0,1-.38,1l0,0h0c.08-.07.13-.1.07,0s0,0,0,0a.53.53,0,0,1,.21.11c-.18.56-.16.08-.21-.11l-.08,0h0l.11,2A8.55,8.55,0,0,0,466.94,563Z"/><path class="cls-5" d="M470.59,553.09a.15.15,0,0,1-.14.06C470.52,553.29,470.57,553.34,470.59,553.09Z"/><path class="cls-5" d="M470.2,553.92a.87.87,0,0,1-.23-.76c.2-.41.29,0,.48,0-.14-.29-.38-1-.71-.12l.08.14c-.24.82-1,1.83-1.09,1.69A3.92,3.92,0,0,0,470.2,553.92Z"/><path class="cls-5" d="M468.79,558.6l.17,1.7.58-.82-.31,0C469.42,558.55,469,558.73,468.79,558.6Z"/><polygon class="cls-5" points="465.99 567.49 465.4 567.19 466.14 568.26 465.99 567.49"/><polygon class="cls-5" points="465.76 569.64 465.23 569.48 465.47 570.09 465.76 569.64"/><path class="cls-5" d="M393.28,663.07l-.47.27A2.46,2.46,0,0,0,393.28,663.07Z"/><path class="cls-5" d="M397,662.21l0-.29C396.84,662.11,396.8,662.24,397,662.21Z"/><path class="cls-5" d="M446.57,618.55c-.83.29-1.92.47-1.38.75l.61.17A2,2,0,0,1,446.57,618.55Z"/><path class="cls-5" d="M423.14,646.81l.28,0c0-.27.06-.52.08-.75C423.4,646.31,423.28,646.56,423.14,646.81Z"/><path class="cls-5" d="M424.07,649.15l-1,.21A4,4,0,0,0,424.07,649.15Z"/><path class="cls-5" d="M372.89,666l-.62.61C373.23,666.59,372.81,666.28,372.89,666Z"/><path class="cls-5" d="M460.6,591.15a5.5,5.5,0,0,0-.86,1.32C460.31,591.89,461,591.5,460.6,591.15Z"/><path class="cls-5" d="M393.23,656.57c-.26.17-.36.32-.32.45C393.19,656.85,393.33,656.7,393.23,656.57Z"/><path class="cls-5" d="M459.13,594.13a3,3,0,0,0,.24-.26,4.63,4.63,0,0,1,.37-1.4A1.68,1.68,0,0,0,459.13,594.13Z"/><path class="cls-5" d="M304.71,639.79a1.4,1.4,0,0,1-.09-.17C304.56,639.67,304.61,639.73,304.71,639.79Z"/><path class="cls-5" d="M294,620.71a7.09,7.09,0,0,1,.59.61A2.17,2.17,0,0,0,294,620.71Z"/><path class="cls-5" d="M463.85,578.12c.06-.46-.05-.09,0,0Z"/><path class="cls-5" d="M466.62,576.43a.41.41,0,0,0,.25.25A.5.5,0,0,1,466.62,576.43Z"/><path class="cls-5" d="M460.85,599.8v0C461,599.75,461,599.77,460.85,599.8Z"/><path class="cls-5" d="M464.26,577.51a2.94,2.94,0,0,0-.3.53A2.71,2.71,0,0,0,464.26,577.51Z"/><path class="cls-5" d="M464,577.54c.06-.15.1-.27.14-.38S464,577.12,464,577.54Z"/><path class="cls-5" d="M463.74,578.75A4.55,4.55,0,0,1,464,578c-.06.08-.1.11-.11.08C463.83,578.25,463.81,578.44,463.74,578.75Z"/><path class="cls-5" d="M339.51,658.07l-.07-.09C338.9,658,339.11,658.08,339.51,658.07Z"/><path class="cls-5" d="M443.92,632s0,0,0-.06l-.06,0Z"/><path class="cls-5" d="M443.07,633.57a1.43,1.43,0,0,1,.8-1.6l-1.67-.73Z"/><path class="cls-5" d="M384.42,664.79l1.3.36c-1.37,1.08-2.5.93-1.24,1.52-.06-1.87,4.8-.85,4.64-2.79l.87.24c-.23,0-.24.14-.48.17,1.73.57.91-1.53,2.94-1.68.71,0,1.25.13.83.46l1.43-.82c.45-.07.42.27,0,.34.76-.24,1.54-.44,2.29-.73v.06a10,10,0,0,1,1.18-1.32c.66.09-.24.28,0,.46l1.14-.8c.66.31-.26,1.07-1.17,1.26,1.72,1.42.94-.71,3.81-.52-.37.21-.74.44-1.12.63,1.1.76,1.92.06,3.51.22-.46-.21-3.26-.64-2-1.56a2.12,2.12,0,0,0,1.58-.72c.22.62.9.25,1.77-.14l.25.84c.88-.62.64-1,1.06-1.6a1.83,1.83,0,0,1,2.05.62c1.78-.56-1.6-.53.36-1.5,1.53-.32,2.37-1.1,3.79-2.33,1.09-.21.07.57.53.62l.53-1.06c.21-.1.24.13.25.25.59-.61-.33-.82.66-1.6-.16-1,3,.08,3.74-1.69.45,0,.11.56.38.8a10.77,10.77,0,0,0,2.27-3.11l1.55-.31c-1.27,0-.53-1.38.11-2.55-.49-.06-.92-.12-1.17-.12.44-.46.88-.93,1.29-1.43.27,0,.29.34.24.83a3.8,3.8,0,0,0,.17-.38c.73-.12.74.5.62,1.19l-.87-.06c-.09.7-.14,1.43.23,1.81a1.55,1.55,0,0,1,.4-.54c0,.19,0,.34.08.38s.17-.22.3-.59l.91.55-.13-.38,2.43-1c.46-.92.76-1.94,1.2-3a11.8,11.8,0,0,1,2-3.11c-.07,1,.64,1,1.15,1.69-1.15-.18-1.49,1.68-2.79,2.46.67-.4.79,0,.72.26.53-.76,1.07-1.52,1.59-2.28.39.57.76,0,1.48-.2-1.29-.72.93-2,1.45-3,.36.3.49.83-.6,1.6,1.82-.16.34-2.45,2-2.75-.23.22-.41.29-.34.55.27-.81,1.83-1.82,1.8-1.24l-.23.23c1.68-1.33,4.62-4.6,3.94-5.64a6.84,6.84,0,0,1,.93,1.42c-.1-1.84-.21-3.63-.41-5.42.54.91,3.2,1.5,2.46,3.22a3.21,3.21,0,0,0,1.41-1.72c-.34.17-1.66-.28-1.43-.7,1.68-.27,1-.3,2.8-.93-.51.26-1.34-1.16-.81-1.77.11.24,1.26.91,1.2,1.25l0-2.57c-.09.57,1,.88,1.61.78-.38,0,1.13-1.38,1.3-1.93-.26.16-.52.33-.8.49,1.55-1.74-.44-3.13.93-4.9.1.39,1.24,1.67,2.05.81-.36-.91-1.87-4.06-1.36-6l.57-.08.33-1.56a21.48,21.48,0,0,1,.87,3.26,22.62,22.62,0,0,1,.39,3.53c.77-.53.58.09,1.26-1,.61-.16.15.94,0,1.28.62-.81,1.29-1.59,1.88-2.42-.86-.38.4-2.48-.32-2.77-.29,1.09-.56,2.21-.89,3.31-.82-.38-1.24-3,0-4.72.6-.27,1.22,1.18,1.5,1.3a2.64,2.64,0,0,1,.25-1.18c.17-.48.39-.91.53-.94v1c.88-.88-.13-2.3,1.33-3.13.3-.4,1.75-.75,1.3-1.08-1.3.24-4.25-1.16-4.72-2a17.45,17.45,0,0,1,2.73-2c1.11-.35,1.23,2,2.18,1.65-.22-.14-.3-.67-.3-.88.42-.37.6.53,1-.52-.76-.58,1-2-.49-.83.21-1.1.66-1,1.15-2.16-.73.12-1.38-1.87-1.23-3,.19.16.57.05.74,0,.92-2,1.8-2.94,2.5-4.89.28-.1.89-.95,1.12-.41a2.19,2.19,0,0,1-.06-1.31c1.2-.9-.38,1.39.87.82-.47-.25-.14-1.81-.19-2.79-.88,0-.81,1.94-.83,2.91-1.08-.39-1.67-2.28-1.54-4.46.26-1.69.95-.47.88-.8,1.16-3-1.17-3.17.39-5.45,1-.81,1.43.34,2,.26-.12,1.41-1.05,1.92-1.28,2.83l.66-1a2.64,2.64,0,0,1-.32,1.86c.44-.33.85-1.62,1.31-3.11a25.89,25.89,0,0,1,1.47-4.34c-.12-.48-.23-1.29-.59-1,0,.26,0,.52-.07.78-.74.57-.47-1.61-1-.72a5.84,5.84,0,0,1,0-3.74l.89-.1c-.25,0-.69.84-.53,1.29-.23-.66,1.59-2,.61-2.85l-.75.9c-.24-1.11-.89-2.52-.4-3.74-.93.43,0,.31-1.08,1,1.33-.57-.63,3.2.85,2.19-1.28.71-.81,1.5-2,2.49.28,0,.61-.31.25.71a1.07,1.07,0,0,1,.19.28l0,.07,0,0s0,.06,0,0a1.18,1.18,0,0,1,.53-.45c.51.66.13,2.34.29,3-.29.59-.25-.34-.62-.07l.27,1c-.62-.07-1.41,1.39-1.4-.16L463,582a4,4,0,0,0-.9,2.41c-.31.57.21,1.73-.1,1.06-.08.71-.14,1.43-.24,2.14l-.15,0c-.72,1.95-.37,4.44-2.28,6.28a5.45,5.45,0,0,1-.78,2.49H458c-.17.91-1.52,2.29-1.16,2.86-1.73.3-2,3.84-3,5.12l.6.37a18.57,18.57,0,0,0-1.21,3.3l.59.21c-.14,1.27-1.8,2.46-2.73,4-.13-.22.16-.59.45-.81a4.07,4.07,0,0,0-1.87,2.85c-.36,1.12-.69,2.24-1.66,2.8a1.33,1.33,0,0,1-.67,1,.31.31,0,0,0,.05-.12l-.13.16c-.21.12-.45.24-.67.38a2.31,2.31,0,0,0,.61-.29,7,7,0,0,0-.69,1.4l-.69-.19-.06.12c-.52.31,0,.55.58.6a3,3,0,0,0-.12.85c-1.12-.25-.59,1.44-1.9,1.25.21.63-1.42,2.53-.71,3.5-.13-.08-.29,0-.1-.24a2.61,2.61,0,0,0-1.16,1.47l-.82-.33,0,1.81c-.94.33-1.4.38-1.33-.68-.61,2.18-.82,1.47-1.27,3.43l-.34-.43c-.39.48-.55,1.7-1.15,1.65-1.7.27-5,4.8-8.39,6.27,1.55.79-1.7.51-1.05,1.54-.4-.17-.92,0-.68-.64-1.2,1.38-2.46,1.2-2.86,2.75-.39-.19,0-.67-.3-.75-.07.15-.27.6-.55.52s0-.41.16-.7c-1.45,1.09-.93,2.16-.42,3.14-1.06.13-1.4.45-1.59,1.41-.47-.12-1.13-.14-.24-.87-.58.3-3.59,1.71-3.21,2.46-.29-.09-.82.4-.92.57-1.29.68-1.43.7-2.65,1.45l.42,0c0,1.19-1,.75-1.92,1.4l0-.11c-2.7.53-.85.89-3.6,1.19l.41.54c.19.7-.44.75-1.24.77a3.93,3.93,0,0,0-2.4.51l.65.15c-.6.76-2.88-.93-3.68-.8-.21-.05.19-.29.38-.47-2.27,0,.06.93-1.38,1.66-.44-.34-.05-1.24-1.09-1-.6-.19-2.46,2.47-4.15,2,.41.26.82.51.18,1a6.72,6.72,0,0,1-2.16.11c-.79,0-1.53.06-1.9.73a.39.39,0,0,1-.27-.22c-.39.24-1.05.52-1.67.84a3.43,3.43,0,0,0-1.4.95c-.63-1-1.9-.51-3.1,0s-2.32,1-2.44-.09c-.89.16-1.77.33-2.67.43l.05-.22a3.43,3.43,0,0,0-2.86,1.13c-.41-.11-.13-.33-.1-.44-2.55-.32-2.77-.19-4.88.9l-.23-.68c-.59.38-3.63-1-6.11-.43a.47.47,0,0,1,.29-.29c-1.41.36-3-.28-4.44-.69s-2.58-.62-3.26.54l-1.92.34c2.35.54-.52,1,.4,1.57-1,0-2.31-1.13-1.14-1l.16.15c.63-1.18-2.86-1-2.63-1.86-4.62-.86-8.86-2.71-12.95-4.21l.15,1.11c-.47-.19-1-.35-1.43-.55-.3-.37-.24-.92.77-.52-.35-.71-1.87-.19-2,0-1.85-1.15,1.2-.81.59-1.06l-.86-.25.15.18c-.82.13-1,.52-2.25,0-.69-.5-.16-.74-.44-.9,0-.06-.06-.14-.45-.22l-1.73-.84.39,1c-.94,0-1.66-.75-1.2.42-.67-1.73-6.33-3.55-6.82-4.36a6.84,6.84,0,0,1-3.62-1.45c.23.32,0,1.21-1.07.46,1.34-1.35-1.62-1.85-1.75-3.56.29,1.24-3.14-1.77-2.62.05-.81-.7.33-.61-.11-1.4a10.41,10.41,0,0,1-3.38-2.31,26.14,26.14,0,0,0-3.44-3c-.19.16,0,.77-.75.64-.2-.64-.35-1.32-.51-2-.55-.3-1.33.71-1.65-.65,0,.26,0,.64-.39.44a33.87,33.87,0,0,0-3.22-3.34c-1.17-1-2.34-2.07-3.49-3.13a26.82,26.82,0,0,1-3.24-3.41,14.58,14.58,0,0,1-2.39-4.11c.19.94-.21.55-.64.08.19.39-.46.38-.65.66-.34-.87-.7-1.69-1-2.57-1,.21-1.78-2.13-2.64-1.81l.64.55c-1.5-.23-.82,2.63-1.93,3.35,1.65.25.82,3.68,3.45,4.16.1.53-.58,0-.65.37.78,0,1.26.44,1.89,1.46h-.19a22.64,22.64,0,0,1,2.65,3.12c.76,1,1.52,2.06,2.73,3.51l.25-.66a3.62,3.62,0,0,1,.66,1.26c.68-.05.27-.44-.13-.85s-.78-.86-.1-1c-.1.86.95,1.82,1.95,2.76s1.94,1.88,1.74,2.67c.95.8.21-.8,1.16,0v.52l.57-.2a1.29,1.29,0,0,1,.36,1.53,2.77,2.77,0,0,0-.67-.4c.5,1.05,2.4,1.78,2.6,2.11l-.79-.93c1.46.89,2.92,2.08,4.43,3.18a20,20,0,0,0,4.69,2.63l0-.39c2.4.86,1.47,1.4,3.94,2.6h-.12a3.92,3.92,0,0,1,2,.66c-.78,0,.77,1.27-.21,1.15,2.63.85,1.4.26,3.51.11l.11.64a2.71,2.71,0,0,1,2.17.21c-1.19-.14.41,1.1-1,1,2.06,2.32,4.31.85,4.8,2.92,1.77-.73-1.91-1.78-1.12-1.74-.35-.69,1.42-.48,2.16,0s.69,2.26,2.83,3.15c-.21-.09-.26,0-.47-.1.65.69,1.75.19,2.53,1.11.86-.58,1.27.54,1.81-.42l-2.06-.52c1.23.15,2.69-.6,4.33.6a3.23,3.23,0,0,1-1.3.27c.44.49,1.12.15,1.58.65-.26.49-.89.34-1.64.12a4.76,4.76,0,0,0-2.35-.42c.42.65,2.55.12,1.54,1,1.37-1.08,2.12.91,4,.33l-.29.59a3.17,3.17,0,0,1,1.27,0l-1,.55c1.42-.26,2.19,1.3,3.48,1.28-2.48-.68-.34-.92-1.24-1.67,1.63,0,1.94.54,2.29,1.16a2.79,2.79,0,0,0,2.52,1.57c-.49,0-1.66-.8-.86-.92a5.39,5.39,0,0,1,1.76,1.16c2.33.41-.2-.73.86-.9.61,1,1.19,0,2.24-.11l-.12.65c2.54.91.95-1.23,3.2-.28l-1.15.72h1.27l-.38.69a4.53,4.53,0,0,1,3.13.26c-.24-.51.34-1.17,1.5-1,.74.49-.53.59,1.14.66-.41.37-.9.88-1.54.16-.1.2-.43.36-.53.56.81.59,2.17.35,2.78.41a1.72,1.72,0,0,1-.64-.22l2.51-.68c.35.29,0,.46-.28.62.5,0,.86-.27,1.59-.3-.23.52-.22,1.11-1.27,1.25.79-.1,1.58-.29,2.37-.44.14.24,1.16.7.85.89a4.61,4.61,0,0,0,2.31-.26,5.2,5.2,0,0,1,2.61-.26,1.18,1.18,0,0,1,.63-.28c1.61.14,3.08.68,4.95-.12.38.31.76.6,1.15.88,1.48-.35-1.55-1.08.89-1.66,1.72-.47.73.76,1.37,1a10.54,10.54,0,0,1,1.64-1,3,3,0,0,1,2.28-.18A6.33,6.33,0,0,1,384.42,664.79Zm17.81-4.5c-.29.25-.83.89-1.2.6C401.18,660,401.58,660.28,402.23,660.29ZM426,646.34c-.08.33-.48.48-1,.53A2.09,2.09,0,0,1,426,646.34Zm37.13-63.22,0,0C462.72,583.82,462.89,583.59,463.15,583.12Zm.67-1.43c-.05-.17-.15-.19-.25-.15.13.15.06.49-.08.87C463.68,582.34,463.85,582.18,463.82,581.69Zm-127.38,70.4.22.28C336,652.28,336.2,652.19,336.44,652.09Z"/><path class="cls-5" d="M424,648.87a.74.74,0,0,1-.32-.22C423.59,648.82,423.66,648.93,424,648.87Z"/><path class="cls-5" d="M373,665.87h-.06a.31.31,0,0,0-.05.12Z"/><path class="cls-5" d="M460.57,606.73a1.36,1.36,0,0,1-.59.43C460.11,607.25,460.3,607.17,460.57,606.73Z"/><path class="cls-5" d="M464.52,573.43c0,.34,0,.67,0,1a1.57,1.57,0,0,1,.38-.84C464.73,573.59,464.48,573.74,464.52,573.43Z"/><path class="cls-5" d="M469.93,565.45c-.07-.16,0-.32,0-.47h-.31C469.53,565.61,469.73,566.08,469.93,565.45Z"/><path class="cls-5" d="M466.85,572.93c.57,0,.49-.64.51-1.35a.25.25,0,0,1,0,.12C466.61,571.36,466.73,572.14,466.85,572.93Z"/><path class="cls-5" d="M467.38,571.41a2.31,2.31,0,0,1,.1-.64C467.18,570.64,467.37,571,467.38,571.41Z"/><path class="cls-5" d="M463.94,579.69c.22-.29-.64-.37-.37-.5C463,578.67,463.86,581.53,463.94,579.69Z"/><polygon class="cls-5" points="468.76 572.69 468.04 572.82 468.52 573.31 468.76 572.69"/><path class="cls-5" d="M467.16,578.11l.43-1.07c-.12,0-.15-.16-.17-.35C467.25,577.37,467,578.09,467.16,578.11Z"/><path class="cls-5" d="M467.42,576.69a1.91,1.91,0,0,0,.08-.92A4.84,4.84,0,0,0,467.42,576.69Z"/><path class="cls-5" d="M468.69,574.26l-.2.31c-.06.26-.13.52-.2.78C468.44,575,468.56,574.63,468.69,574.26Z"/><path class="cls-5" d="M463.79,589.86l-.2,1.24c.19.2.43-.08.49-.55S464.07,589.75,463.79,589.86Z"/><path class="cls-5" d="M466.72,586.81c-.23.29-.39.26-.66.38l.81.29Z"/><path class="cls-5" d="M465.82,590.38c.19.19.07,2,.52.41C466.16,590.6,466.37,589.34,465.82,590.38Z"/><polygon class="cls-5" points="457.6 607.43 457.73 607.15 456.46 606.55 457.6 607.43"/><path class="cls-5" d="M451.76,623.58c1.16-1.05-.5-.79.64-1.67-.07-.48-.93.72-1,.26C451.2,623.11,450.76,623.39,451.76,623.58Z"/><path class="cls-5" d="M451.44,622.17a3.54,3.54,0,0,0,.1-.51A1.84,1.84,0,0,0,451.44,622.17Z"/><polygon class="cls-5" points="292.46 617.6 292.11 616.7 292.12 617.46 292.46 617.6"/><path class="cls-5" d="M290.53,616.86l.57-.72-1,.05C290.27,616.34,290.59,616.61,290.53,616.86Z"/><path class="cls-5" d="M405.43,661.09v-.22c-.23-.17-.46-.11-.91,0Z"/><polygon class="cls-5" points="392.25 664.2 392.49 664.17 391.89 663.47 392.25 664.2"/><path class="cls-5" d="M381.16,666.87c.47,0,1-.23,1.47-.24C381.63,666.87,381,665.88,381.16,666.87Z"/><rect class="cls-6" x="67.14" y="731.15" width="59.38" height="10.75" rx="2.98"/><path class="cls-7" d="M211.6,771.91h20.08a2,2,0,0,1,2,2v.41a.21.21,0,0,1-.21.21H211.6a.62.62,0,0,1-.62-.62v-1.37a.62.62,0,0,1,.62-.62Z"/><path class="cls-8" d="M232.57,660.79c1.76,1.88-6,12.63-13.26,20.26-7.65,8.07-21.15,19.44-44.08,27.37l6.21-24a217,217,0,0,0,29.45-12.88C223.79,664.75,231.11,659.22,232.57,660.79Z"/><path class="cls-9" d="M211.28,774.66H182.12a19.57,19.57,0,0,1-19.44-21.81q2.55-13.44,5-26.9c1.32-7.29,1.41-8.5,1.74-10.36s.69-3.37.8-3.84c1.5-6.43,1.54-9.56,3.46-19.28a19.1,19.1,0,0,0,.26-7.26,18.28,18.28,0,0,0-.91-3.34,63.18,63.18,0,0,1,33.15-22.94,19.61,19.61,0,0,0,0,11.54c.71,2.13,1.61,3.36,4.35,7.56,2.15,3.3,4.16,6.7,6.33,10,11.55,17.46,13,62.66,13.29,65.68h0c.22,7,.4,12.75-1,15.6C226.23,775.47,212.73,774.75,211.28,774.66Z"/><path class="cls-10" d="M215.59,765.62H200c-6.27,0-11.14-6.89-10.42-14.74l3.61-39.45A20.46,20.46,0,0,1,198,699.71c.67-.76,4.71-4.76,9.78-4.7,6.45.08,13.05,6.76,14.63,16.6l3.33,39.84C226.35,759,221.64,765.62,215.59,765.62Z"/><path class="cls-10" d="M227.43,634.32c-1.21.92-3.06,2.33-5.33,4-29,21.67-39.18,25.82-41.15,36.73-.69,3.85-.13,7.26.48,11,1.51,9.14,5.11,13.52,7.62,20,2,5.16,3.83,13,2.4,23.94l31.61-10.72a60.58,60.58,0,0,0-.67-7.64,70.65,70.65,0,0,0-7.8-22.58c-4.38-8.19-7.42-10.55-9-14.59a16.39,16.39,0,0,1-.93-3.74,16,16,0,0,1,1.33-9.19,17.93,17.93,0,0,1,4.82-5.75,38.55,38.55,0,0,1,3.76-2.76,40.72,40.72,0,0,0,7.27-7.08A31.56,31.56,0,0,0,227.43,634.32Z"/><ellipse class="cls-11" cx="157.28" cy="623.95" rx="26.03" ry="32.27" transform="translate(-348.61 226.3) rotate(-37.68)"/><path class="cls-9" d="M227.43,634.32c-1.67,5.43-15,12.79-19.53,15.51-5.7,3.41-23.14,13.84-26.09,29.71a26.82,26.82,0,0,0-.38,6.5l-7.1,2.76a22.9,22.9,0,0,0-.3-3c-1.36-8.27-6.47-11.91-10.28-19.07a37.4,37.4,0,0,1-3.91-12,99.85,99.85,0,0,0-4.94-33.33c10.29-7.26,19.19-8.53,23.86-8.75,8.06-.39,15.37,1.76,18.47,2.67,8.4,2.48,12.2,5.45,20.87,6.37a46.17,46.17,0,0,0,9.63,0l1.23,2a35.27,35.27,0,0,1-.35,5.31A40.76,40.76,0,0,1,227.43,634.32Z"/><rect class="cls-12" x="223.89" y="621.29" width="5.48" height="4.2" rx="2.1" transform="translate(-262.26 175.1) rotate(-27.5)"/><circle class="cls-13" cx="187.68" cy="627.61" r="2.78"/><circle class="cls-14" cx="186.27" cy="626.97" r="0.47"/><path class="cls-14" d="M200.6,632.78a29.58,29.58,0,0,0-4.71,3,26.51,26.51,0,0,0-4,3.81,25.67,25.67,0,0,0-3.06,4.57,29.67,29.67,0,0,0-2.08,5.15,19.17,19.17,0,0,1,1.54-5.42,20.49,20.49,0,0,1,3-4.8,20.77,20.77,0,0,1,4.21-3.79A19.15,19.15,0,0,1,200.6,632.78Z"/><path class="cls-14" d="M201.64,633.55a19.27,19.27,0,0,0-2.69,2.73,15.25,15.25,0,0,0-1.94,3.21,14.92,14.92,0,0,0-1.1,3.59,18,18,0,0,0-.23,3.82,10.84,10.84,0,0,1-.37-3.89,11.68,11.68,0,0,1,3.2-7.12A11.15,11.15,0,0,1,201.64,633.55Z"/><path class="cls-14" d="M203.11,634.18a13.27,13.27,0,0,0-1.93,3.27,11.43,11.43,0,0,0-.8,3.63,12.49,12.49,0,0,0,.41,3.69,16.07,16.07,0,0,0,1.44,3.53A10.28,10.28,0,0,1,199.6,641a9.59,9.59,0,0,1,1-3.83A9.11,9.11,0,0,1,203.11,634.18Z"/><path class="cls-9" d="M158.22,608.81c-1.08-.41-18.95-6.9-31,4.28a26.52,26.52,0,0,0-8,16.35c-1.23,11.53,5.46,21.86,13.61,27.4,12.86,8.74,27.12,4,28.72,3.46,1.57-6,3.42-12.32,5.61-18.91,2.3-6.91,4.73-13.37,7.2-19.36A34.72,34.72,0,0,0,158.22,608.81Z"/><path class="cls-7" d="M166.87,629a25.39,25.39,0,0,0-5.53,20.22c-12.05,2.71-22.39-2.9-24.5-10.4a14.32,14.32,0,0,1,4.85-14.55c5.21-4,11.79-2.34,14.59-1.57A23.92,23.92,0,0,1,166.87,629Z"/><rect class="cls-15" x="185.9" y="668.22" width="57.68" height="10.75" rx="2.94" transform="translate(-81.39 31.61) rotate(-7.08)"/><path class="cls-16" d="M228.8,670.24c1.61,2.12-7.6,12.23-15.11,18.92-8,7.12-21.12,16.67-41.47,23.51L180.3,691l25.9-12.09C220.57,672.23,227.78,668.9,228.8,670.24Z"/><path class="cls-17" d="M956.29,744.31c-2-.17-5.52.93-7.46,1.32-1.72.35-4.16.83-6.23-.43-.91-.56-2.29-1.85-2.09-3.1s2-2,5.51-3.66c.77-.36,1-.45,1.43-.64,1.87-.85,6.6-3,7.59-7.11a7.22,7.22,0,0,0-2-7,6.93,6.93,0,0,0-4.5-1.51,10,10,0,0,0-4.41,1.17A20.3,20.3,0,0,0,937,728.5a16.14,16.14,0,0,0-3.86,6.45,14.61,14.61,0,0,0-.37,6.61,11.77,11.77,0,0,0,6.57,8.84,16,16,0,0,0,5.68,1.69,17.7,17.7,0,0,0,10-2.16c3-1.43,3.28-2.4,3.33-2.9a2.72,2.72,0,0,0-1.21-2.47A2,2,0,0,0,956.29,744.31Zm-17.2-8.11c-.8-.92,1.6-4.94,5-6.65,1.06-.53,3.13-1.36,3.73-.66s-.84,3.08-1,3.25a8.31,8.31,0,0,1-2.65,2.39C943.12,735.18,939.79,737,939.09,736.2Z"/><rect class="cls-17" x="941.06" y="706.34" width="4.17" height="12.12" rx="2.05" transform="translate(-109.64 175.1) rotate(-10.03)"/><rect class="cls-17" x="950.61" y="706.68" width="4.17" height="12.12" rx="2.05" transform="translate(300.75 -282.55) rotate(19.97)"/><rect class="cls-17" x="932.71" y="709.85" width="4.17" height="12.12" rx="2.05" transform="translate(2111.03 662.89) rotate(139.97)"/><rect class="cls-17" x="927.45" y="717.11" width="4.17" height="12.12" rx="2.05" transform="translate(1948.48 132.61) rotate(112.02)"/><rect class="cls-17" x="958.04" y="711.7" width="4.17" height="12.12" rx="2.05" transform="matrix(0.67, 0.74, -0.74, 0.67, 849.48, -475.88)"/><path class="cls-18" d="M62.39,764.05a3.39,3.39,0,0,1-.74-2.11h0a6.08,6.08,0,0,1,1.29-3.5h0a9.28,9.28,0,0,1,2.78-2.55h0a4.28,4.28,0,0,1,2-.65h0a2.34,2.34,0,0,1,.38,0h0a3.65,3.65,0,0,1,2.25,1.12h0a3.74,3.74,0,0,1,.27.31h0c.06-.67.13-1.51.2-2.38h0c.17-2.05.34-4.32.33-5h0v-.12h0A5,5,0,0,1,71,748h0a1.27,1.27,0,0,1,.16-.69h0a.82.82,0,0,1,.72-.41h0a1.7,1.7,0,0,1,1.72,1.68h0a1.9,1.9,0,0,1-.09.58h0s0,0,0,.07h0c0,.06,0,.15,0,.26h0c0,.21-.07.51-.11.86h0c-.08.71-.17,1.66-.26,2.69h0c-.15,1.9-.3,4.11-.35,5.76h0a1.7,1.7,0,0,1,.56.25h0a1.06,1.06,0,0,1,.41.58h0a2.14,2.14,0,0,1,.07.48h0a1,1,0,0,1-.21.68h0a1.39,1.39,0,0,1-.49.38h0c-.21.09-.41.16-.62.23h0a7.22,7.22,0,0,1,.11,1.14h0a2.76,2.76,0,0,1,0,.64h0a1.15,1.15,0,0,1-.33.62h0a.82.82,0,0,1-.54.22h-.12a1.91,1.91,0,0,1-.86-.29h0a1.4,1.4,0,0,1-.46-.62h0c0-.1-.06-.2-.08-.29h0c-.36.23-.84.53-1.4.83h0A9.68,9.68,0,0,1,64.64,765h0a2.67,2.67,0,0,1-2.22-1Zm2.88-4.94A5.27,5.27,0,0,0,63.91,762h0a.81.81,0,0,0,.18.55h0a.89.89,0,0,0,.68.23h0a5.67,5.67,0,0,0,2.37-.86h0c.83-.46,1.72-1,2.57-1.57h0c0-.18-.09-.41-.16-.67h0a5.22,5.22,0,0,0-.8-1.7h0a1.28,1.28,0,0,0-.74-.51h-.23a4.2,4.2,0,0,0-2.51,1.66Zm10.81,3.44a9.77,9.77,0,0,1-1.28-3h0a25.26,25.26,0,0,1-.72-4.89h0a1.21,1.21,0,0,1,0-.19h0a1.3,1.3,0,0,1,.24-.84h0a.91.91,0,0,1,.73-.36h0a.59.59,0,0,1,.19,0h0a1.3,1.3,0,0,1,1,.63h0a1.6,1.6,0,0,1,.19.74h0v.59h0a20.1,20.1,0,0,0,.35,3.83h0a4.83,4.83,0,0,0,.83,2.11h0a.65.65,0,0,0,.49.3h0a.91.91,0,0,0,.33-.1h0a2.49,2.49,0,0,0,1-1.17h0a7.45,7.45,0,0,0,.55-1.91h0a17,17,0,0,0,.2-3h0v-.08h0a1.5,1.5,0,0,1,.16-.79h0a1.14,1.14,0,0,1,1-.53h.08a1.07,1.07,0,0,1,.7.29h0a1.31,1.31,0,0,1,.33.5h0a1.94,1.94,0,0,1,.15.61h0v.1c0,.28-.09,1.48-.3,2.85h0A12.16,12.16,0,0,1,81,762.41h0A2.9,2.9,0,0,1,79,764h0a1.9,1.9,0,0,1-.41,0h0a3,3,0,0,1-2.51-1.48Zm9.63,2.14H85.5a1.39,1.39,0,0,1-.92-.52h0a1.31,1.31,0,0,1-.21-.5h0l-.12,0h0a1.17,1.17,0,0,1-.7-.52h0l0,0v0a.8.8,0,0,1,0-.15h0a.2.2,0,0,0,0-.07h0s0-.09,0-.16h0c0-.12,0-.29,0-.5h0c0-.42,0-1,0-1.64h0c0-1.36,0-3.07.15-4.51h0a1.45,1.45,0,0,1-.35-.78h0v-.09h0a1.08,1.08,0,0,1,.33-.76h0a1.79,1.79,0,0,1,.39-.33h0c0-.06,0-.14,0-.23h0c.06-.28.14-.69.23-1.15h0a17.34,17.34,0,0,0,.3-3.06h0v-.15h0a3.33,3.33,0,0,0-.1-.42h0a3.63,3.63,0,0,1-.13-.75h0a1.13,1.13,0,0,1,.23-.72h0a1.14,1.14,0,0,1,.77-.38h.11a1,1,0,0,1,.65.25h0a2,2,0,0,1,.42.53h0a3.49,3.49,0,0,1,.4,1.57h0v.17h0a8.43,8.43,0,0,1-.21,1.92h0c-.11.53-.24,1.11-.38,1.94h0a9.53,9.53,0,0,1,2.68.37h0a4.44,4.44,0,0,1,2.85,2.23h0A2,2,0,0,1,92,757h0a3.94,3.94,0,0,1-.65,2h0a12.79,12.79,0,0,1-1.42,1.89h0A35.49,35.49,0,0,1,87,763.65h0l-.31.28h0a1.54,1.54,0,0,0-.22.27h0a1,1,0,0,1-.33.36h0a.88.88,0,0,1-.43.12h0Zm-.13-5.62a25.71,25.71,0,0,0,.17,2.72h0l.79-.66h0A16,16,0,0,0,89,758.61h0a2.72,2.72,0,0,0,.63-1.46h0a.62.62,0,0,0-.06-.29h0a1.93,1.93,0,0,0-1.14-.73h0a7,7,0,0,0-2.07-.28h0l-.44,0h0q0,.24-.09.6h0a17.42,17.42,0,0,0-.2,2.11h0v.49ZM94,765.22a1.47,1.47,0,0,1-.83-.29h0a.92.92,0,0,1-.37-.56h0a4.75,4.75,0,0,1-.12-.65h0a19,19,0,0,1-.1-1.9h0c0-2.93.25-7.45.42-10.07h0c.08-1.33.13-2.47.19-3.36h0a10.47,10.47,0,0,1,.23-1.92h0a.93.93,0,0,1,.23-.4h0a1.24,1.24,0,0,1,.82-.37h0a1.5,1.5,0,0,1,1.05.52h0a1.27,1.27,0,0,1,.28.46h0a2.12,2.12,0,0,1,.07.57h0a22,22,0,0,1-.21,2.32h0c-.14,1.17-.33,2.83-.55,5.24h0c-.17,1.88-.24,3.8-.22,5.46h0a28.18,28.18,0,0,0,.15,2.84h0c0,.1,0,.23,0,.38h0a2.93,2.93,0,0,1,0,.71h0a1.41,1.41,0,0,1-.36.75h0a.93.93,0,0,1-.62.27h0Zm3.74-1.64.21-.47-.22.47a3.49,3.49,0,0,1-1.41-1.46h0a5.14,5.14,0,0,1-.64-2.42h0a5,5,0,0,1,.38-2h0a11.26,11.26,0,0,1,2-3.41h0a3.53,3.53,0,0,1,2.21-1.25h.2a3.44,3.44,0,0,1,2.13.79h0a4.66,4.66,0,0,1,1.63,2.9h0a6.61,6.61,0,0,1,.09,1h0a6,6,0,0,1-1.92,4.39h0a5.65,5.65,0,0,1-3.58,1.67h0a2.42,2.42,0,0,1-1-.21Zm2.9-8.14a.49.49,0,0,0-.17.06h0a2.33,2.33,0,0,0-.64.42h0A6.36,6.36,0,0,0,98.08,759h0a2.49,2.49,0,0,0-.09.68h0a3.06,3.06,0,0,0,.27,1.21h0a1.08,1.08,0,0,0,.59.63h0a.6.6,0,0,0,.2,0h0a2.59,2.59,0,0,0,1.4-.67h0a4.14,4.14,0,0,0,1.07-1.24h0a4.89,4.89,0,0,0,.57-2.12h0a3,3,0,0,0-.31-1.26h0a1.77,1.77,0,0,0-.42-.63h0a1.1,1.1,0,0,0-.42-.19h0l-.25,0h0Zm-.14-.12,0-.4,0,.4Zm-47.17,3.8a8.7,8.7,0,0,1,1.52-1.8,10,10,0,0,1,4.16-2l.73.06a3.2,3.2,0,0,1,1.64.76,1.85,1.85,0,0,1,.39,1.87,3.18,3.18,0,0,1-1.55,2.06,7.13,7.13,0,0,1-2.77,1c-1,.15-1.56.33-1.66.54s0,.48.38.79a6,6,0,0,0,2.56.84,11.36,11.36,0,0,0,3.36.21A12.43,12.43,0,0,0,64.3,763c.57-.19,1.19.41,1.5.37s.55.14.68.57c-.64.71-1.49.5-2.19.78a12,12,0,0,1-2.57.69,14.92,14.92,0,0,1-3.66.08l-.85-.1a10.6,10.6,0,0,1-3-1,3.7,3.7,0,0,1-1.13-1.09,3.61,3.61,0,0,1-.43-1.7A6.31,6.31,0,0,1,53.35,759.12Zm2.31.75a8,8,0,0,0,2.73-.88c.48-.32.71-.65.68-1s-.38-.36-1.07-.1a3.64,3.64,0,0,0-1.48.86A12.08,12.08,0,0,0,55.66,759.87Z"/><path class="cls-18" d="M100,772.31a10.37,10.37,0,0,1-5.26-2.51h0a.84.84,0,0,1-.29-.6h0a.38.38,0,0,1,0-.15h0a1.14,1.14,0,0,1,.34-.66h0a1.17,1.17,0,0,1,.68-.34h0l.14,0h0a1,1,0,0,1,.67.27h0a6.57,6.57,0,0,0,1.46,1h0a11.62,11.62,0,0,0,1.69.67h0a11.79,11.79,0,0,0,2.64.47h0a8.42,8.42,0,0,0,.87,0h0a9.8,9.8,0,0,0,1.79-.19h0a10.67,10.67,0,0,0,2.26-.72h0a5.18,5.18,0,0,0,2.31-2.62h0a14,14,0,0,0,.66-4.33h0c-.15.2-.3.4-.47.59h0a5,5,0,0,1-1,.87h0a3.79,3.79,0,0,1-1.48.61h0l-.26,0h0a1.69,1.69,0,0,1-.7-.15h0a2.5,2.5,0,0,1-.73-.51h0a3.56,3.56,0,0,1-1-2.35h0a2.09,2.09,0,0,1,0-.25h0a6,6,0,0,1,.47-2.44h0a15.22,15.22,0,0,1,1.27-2.48h0a10.5,10.5,0,0,1,.66-.92h0a10.82,10.82,0,0,1,1.19-1.28h0a6.5,6.5,0,0,1,1.49-1h0a2.27,2.27,0,0,1,1.07-.29h0a1.92,1.92,0,0,1,.58.07h0a.87.87,0,0,1,.32.15h0a.36.36,0,0,1,.15.29h0v.06h0a1,1,0,0,1-.27.51h.09l.35,0h0c.62.09,1,.45,1,1h0v.09h0c-.08,1.46-.15,2.91-.23,4.36h0c-.07,1.46-.22,2.91-.38,4.36h0a16,16,0,0,1-.73,3.65h0a7.29,7.29,0,0,1-.73,1.55h0a6.69,6.69,0,0,1-2,1.94h0a10.29,10.29,0,0,1-2.67,1.16h0a12.56,12.56,0,0,1-3,.42h0a14.57,14.57,0,0,1-3-.25Zm10.1-17.24a5.64,5.64,0,0,0-.47.5h0c-.15.2-.32.4-.49.62h0a6.14,6.14,0,0,0-.81,1.22h0q-.33.63-.63,1.29h0a6.61,6.61,0,0,0-.8,2.71h0v0h0a3.1,3.1,0,0,0,.1.76h0c.06.16.11.21.16.23h0l0,0h0l.13-.11h0a5.1,5.1,0,0,0,.4-.51h0a13.43,13.43,0,0,0,1.15-2.23h0a20,20,0,0,0,.83-2.36h0c.21-.79.44-1.58.66-2.37h0l-.27.24Z"/><path class="cls-18" d="M115.1,764.36a5.32,5.32,0,0,1-1.76-1.6h0a.83.83,0,0,1-.15-.45h0a.87.87,0,0,1,.06-.32h0a1.39,1.39,0,0,1,.45-.64h0a1.42,1.42,0,0,1,.7-.3h.09a.74.74,0,0,1,.62.33h0a4,4,0,0,0,1.06,1h0a.86.86,0,0,0,.44.14h0a.67.67,0,0,0,.5-.27h0l0-.05h0l.05-.11h0a1.5,1.5,0,0,0,.07-.51h0v0h0a2.62,2.62,0,0,0-.19-.79h0a2.73,2.73,0,0,0-.78-1h0c-.22-.17-.44-.33-.68-.49h0a3.2,3.2,0,0,1-.67-.6h0a2.45,2.45,0,0,1-.6-1.58h0a3,3,0,0,1,0-.52h0a3.33,3.33,0,0,1,1.3-2.2h0a5.6,5.6,0,0,1,2.26-1.13h0l.18,0h0a.7.7,0,0,1,.52.23h0a.78.78,0,0,1,.21.52h0a.86.86,0,0,1,0,.16h0a1.37,1.37,0,0,1-.84,1h0a3.79,3.79,0,0,0-.64.39h0a2.5,2.5,0,0,0-.59.58h0a1.18,1.18,0,0,0-.26.63h0v0h0a.67.67,0,0,0,.3.51h0a8.34,8.34,0,0,0,.75.58h0a3.67,3.67,0,0,1,.75.67h0a7.78,7.78,0,0,1,.77,1.08h0a3.33,3.33,0,0,1,.45,1.28h0a3.37,3.37,0,0,1,0,.44h0a4,4,0,0,1-.38,1.76h0a2.73,2.73,0,0,1-1.68,1.45h0a2.92,2.92,0,0,1-.94.17h0a2.73,2.73,0,0,1-1.44-.38Zm2.17-2.12v0Zm-.06-.06,0,0,0,0Z"/><path class="cls-18" d="M112.71,749.36c.17-.25.34-.49.7-.45a.55.55,0,0,1,.51.58,1.07,1.07,0,0,1-.21.5l-.92,1.46c-.17.25-.35.49-.71.45a.55.55,0,0,1-.5-.58,1,1,0,0,1,.2-.5Z"/><path class="cls-18" d="M109.38,749.15c0-.3,0-.59.29-.78a.53.53,0,0,1,.75.16,1.08,1.08,0,0,1,.14.52l.13,1.72a.74.74,0,0,1-.29.79.55.55,0,0,1-.75-.16,1.12,1.12,0,0,1-.14-.52Z"/><path class="cls-18" d="M106.62,750.12a.76.76,0,0,1,0-.84.56.56,0,0,1,.76-.15,1.23,1.23,0,0,1,.33.43l.79,1.54a.72.72,0,0,1,0,.83.54.54,0,0,1-.75.15,1,1,0,0,1-.33-.43Z"/><path class="cls-18" d="M106.58,752.34c.26.16.5.32.49.69a.56.56,0,0,1-.56.53,1.16,1.16,0,0,1-.51-.18l-1.49-.87c-.26-.15-.5-.32-.48-.68a.54.54,0,0,1,.56-.53,1,1,0,0,1,.5.18Z"/><path class="cls-18" d="M115,751.21a.73.73,0,0,1,.82-.12.55.55,0,0,1,.23.74,1.16,1.16,0,0,1-.39.37l-1.43,1a.74.74,0,0,1-.83.12.55.55,0,0,1-.22-.74,1.07,1.07,0,0,1,.39-.37Z"/></svg>